<svg width="111" height="108" viewBox="0 0 111 108" fill="none" xmlns="http://www.w3.org/2000/svg">
<g clip-path="url(#clip0)">
<path fill-rule="evenodd" clip-rule="evenodd" d="M0 54.5C0 24.9413 24.5772 1 54.9209 1C85.2647 1 109.842 24.9413 109.842 54.5C109.842 84.032 85.2644 108 54.9209 108C24.5772 108 0 84.032 0 54.5ZM21.9683 86.6L66.9486 66.2165L87.8735 22.3999L42.8932 42.7835L21.9683 86.6ZM60.9622 54.5C60.9622 57.7367 58.2708 60.385 54.9209 60.385C51.5982 60.385 48.8793 57.7367 48.8793 54.5C48.8793 51.2629 51.5979 48.6147 54.9209 48.6147C58.2711 48.6147 60.9622 51.2629 60.9622 54.5Z" fill="#121214"/>
</g>
<defs>
<clipPath id="clip0">
<rect width="111" height="108" fill="white"/>
</clipPath>
</defs>
</svg>
